<svg id="Layer_1" enable-background="new 0 0 512 512" height="512" viewBox="0 0 512 512" width="512" xmlns="http://www.w3.org/2000/svg"><path d="m479.155 358.18-49.625 9.924c-51.87 10.386-107.509 3.062-154.779-20.596-6.13-3.063-12.449-5.583-18.75-8.152-64.266-26.206-137.534-26.979-202.489-1.018l-27.92 11.169-25.592 40.237v60l53.511-21.405c64.955-25.961 138.223-25.188 202.489 1.018 6.301 2.569 12.62 5.089 18.75 8.152 47.271 23.657 102.909 30.981 154.779 20.596l82.471-16.495v-60z" fill="#da90f8"/><path d="m429.529 458.104 82.471-16.494v-60l-32.845-23.43-49.625 9.924c-51.87 10.386-107.509 3.062-154.779-20.596-6.13-3.063-12.449-5.583-18.75-8.152v90c6.301 2.569 12.62 5.089 18.75 8.152 47.27 23.658 102.908 30.982 154.778 20.596z" fill="#b760ea"/><path d="m483.002 297.409-53.472 10.695c-51.87 10.356-107.509 3.047-154.779-20.596-6.13-3.063-12.449-5.581-18.75-8.15-64.266-26.201-137.534-26.953-202.489-1.02l-30.505 12.204-23.007 39.203v32.316 27.682l53.511-21.405c64.955-25.961 138.223-25.188 202.489 1.018 6.301 2.569 12.62 5.089 18.75 8.152 47.271 23.657 102.909 30.981 154.779 20.596l82.471-16.494v-29.409-30.591z" fill="#76e2f8"/><path d="m429.529 398.104 82.471-16.494v-29.409-30.591l-28.998-24.201-53.472 10.695c-51.87 10.356-107.509 3.047-154.779-20.596-6.13-3.063-12.449-5.581-18.75-8.15v89.998c6.301 2.569 12.62 5.089 18.75 8.152 47.27 23.658 102.908 30.982 154.778 20.596z" fill="#4bb9ec"/><path d="m482.04 237.603-52.511 10.501c-51.87 10.371-107.509 3.062-154.779-20.596-6.13-3.062-12.449-5.579-18.75-8.148-64.266-26.193-137.534-26.97-202.489-1.022l-24.256 9.703-29.255 41.703v60.002l53.511-21.407c64.955-25.933 138.223-25.181 202.489 1.02 6.301 2.569 12.62 5.087 18.75 8.15 47.271 23.643 102.909 30.952 154.779 20.596l82.471-16.495v-59.998z" fill="#b9dd39"/><path d="m429.529 338.104 82.471-16.494v-59.998l-29.96-24.009-52.511 10.501c-51.87 10.371-107.509 3.062-154.779-20.596-6.13-3.062-12.449-5.579-18.75-8.148v89.998c6.301 2.569 12.62 5.087 18.75 8.15 47.271 23.643 102.909 30.953 154.779 20.596z" fill="#5bc980"/><path d="m486.847 176.642-57.318 11.462c-51.87 10.4-107.509 3.076-154.779-20.596-6.13-3.062-12.449-5.579-18.75-8.148-64.266-26.193-137.534-26.97-202.489-1.022l-24.256 9.703-29.255 41.703v60l53.511-21.405c64.955-25.948 138.223-25.172 202.489 1.022 6.301 2.569 12.62 5.087 18.75 8.148 47.271 23.657 102.909 30.967 154.779 20.596l82.471-16.493v-60z" fill="#ffda2d"/><path d="m429.529 278.104 82.471-16.492v-60l-25.153-24.97-57.318 11.462c-51.87 10.4-107.509 3.076-154.779-20.596-6.13-3.062-12.449-5.579-18.75-8.148v90c6.301 2.569 12.62 5.087 18.75 8.148 47.271 23.658 102.909 30.967 154.779 20.596z" fill="#fcb400"/><path d="m490.694 115.873-61.165 12.231c-51.87 10.371-107.509 3.062-154.779-20.596-6.13-3.06-12.449-5.579-18.75-8.146-64.266-26.19-137.534-26.984-202.489-1.024l-34.385 13.755-19.126 37.652v59.998l53.511-21.405c64.955-25.948 138.223-25.172 202.489 1.022 6.301 2.569 12.62 5.087 18.75 8.148 47.271 23.672 102.909 30.996 154.779 20.596l82.471-16.492v-60z" fill="#ff9100"/><path d="m429.529 218.104 82.471-16.492v-60l-21.306-25.739-61.165 12.231c-51.87 10.371-107.509 3.062-154.779-20.596-6.13-3.06-12.449-5.579-18.75-8.146v89.998c6.301 2.569 12.62 5.087 18.75 8.148 47.271 23.672 102.909 30.997 154.779 20.596z" fill="#ff641a"/><path d="m429.529 98.104c-51.87 10.386-107.509 3.062-154.779-20.596-6.13-3.063-12.449-5.581-18.75-8.15-64.266-26.201-137.534-26.953-202.489-1.02l-53.511 21.417v59.991l53.511-21.407c64.955-25.961 138.223-25.166 202.489 1.024 6.301 2.567 12.62 5.087 18.75 8.146 47.271 23.657 102.909 30.967 154.779 20.596l82.471-16.493v-60.002z" fill="#ff7cb9"/><path d="m429.529 158.104 82.471-16.492v-60.002l-82.471 16.494c-51.87 10.386-107.509 3.062-154.779-20.596-6.13-3.063-12.449-5.581-18.75-8.15v60.004c6.301 2.567 12.62 5.087 18.75 8.146 47.271 23.658 102.909 30.967 154.779 20.596z" fill="#ff3980"/></svg>