<?xml version="1.0" encoding="iso-8859-1"?>
<!-- Generator: Adobe Illustrator 19.0.0, SVG Export Plug-In . SVG Version: 6.00 Build 0)  -->
<svg version="1.1" id="Layer_1" xmlns="http://www.w3.org/2000/svg" xmlns:xlink="http://www.w3.org/1999/xlink" x="0px" y="0px"
	 viewBox="0 0 512 512" style="enable-background:new 0 0 512 512;" xml:space="preserve">
<polyline style="fill:#57BAE5;" points="18.539,471.966 62.005,512 450.01,512 493.476,471.966 "/>
<polygon style="fill:#34A9D1;" points="18.539,471.966 62.005,512 93.142,512 49.676,471.966 "/>
<path style="fill:#57BAE5;" d="M269.227,77.607c-18.441-5.227-40.436-0.258-40.436,18.166v37.174h54.432V95.773
	C283.224,85.701,276.95,80.393,269.227,77.607z"/>
<path style="fill:#34A9D1;" d="M271.576,78.567c-14.422-6.528-42.784-3.469-42.784,17.206v37.174h31.137V95.773
	C259.928,86.747,264.97,81.553,271.576,78.567z"/>
<path style="fill:#7C5437;" d="M407.105,225.14v-41.069c0-10.63-8.616-19.246-19.246-19.246H124.152
	c-10.628,0-19.244,8.616-19.244,19.246v114.198h302.199V252.2"/>
<path style="fill:#8E5E3D;" d="M387.859,164.825H263.298c-2.705,47.172,7.089,92.822,27.614,133.444h116.193
	c0-10.885,0-101.511,0-114.198C407.105,173.442,398.489,164.825,387.859,164.825z"/>
<path style="fill:#FF4B4E;" d="M342.182,164.825V142.81c0-6.062-4.913-10.975-10.976-10.975H180.808
	c-6.062,0-10.976,4.913-10.976,10.975v22.015H342.182z"/>
<path style="fill:#FC5162;" d="M331.205,131.835H267.29c-2.002,10.78-3.347,21.79-3.991,32.99h78.884V142.81
	C342.182,136.749,337.269,131.835,331.205,131.835z"/>
<path style="fill:#603D26;" d="M155.29,164.825h-31.139c-10.628,0-19.244,8.616-19.244,19.246v114.198h31.137V184.071
	C136.044,173.442,144.66,164.825,155.29,164.825z"/>
<path style="fill:#EF2235;" d="M211.944,131.835h-31.137c-6.062,0-10.976,4.913-10.976,10.975v22.015h31.137V142.81
	C200.968,136.749,205.882,131.835,211.944,131.835z"/>
<path style="fill:#F99830;" d="M254.903,0.134c-11.488,4.965-18.909,16.255-18.909,28.761c0,19.189,16.683,28.989,20.014,28.989
	c3.134,0,20.014-9.577,20.014-28.989C276.02,9.353,258.308-1.337,254.903,0.134z"/>
<path style="fill:#FFC373;" d="M387.859,164.825H124.153c-8.72,0-16.085,5.798-18.449,13.748c-1.016,3.43-0.797,4.266-0.797,20.249
	l35.811,23.267c12.638,8.211,23.703,3.27,27.608,0.977l24.499-15.919c0.002,0,0.002,0,0.002-0.001
	c11.198-7.276,21.08-2.755,24.421-0.782c43.056,27.974,34.26,28.104,77.516,0c3.341-1.973,13.223-6.494,24.421,0.782
	c0,0.001,0.002,0.001,0.002,0.001l24.499,15.919c3.904,2.293,14.97,7.233,27.608-0.977l35.811-23.267v-14.752
	C407.105,173.439,398.487,164.825,387.859,164.825z"/>
<path style="fill:#FCCA8D;" d="M387.859,164.825H263.298c-1.15,20.062-0.075,39.849,3.312,59.701
	c1.241-0.628-1.074,0.831,28.154-18.16c3.341-1.973,13.223-6.494,24.421,0.782c0,0.001,0.002,0.001,0.002,0.001l24.499,15.919
	c3.904,2.293,14.97,7.233,27.608-0.977l35.811-23.267c0-16.206,0.033-15.387-0.1-16.72
	C406.018,172.389,397.819,164.825,387.859,164.825z"/>
<path style="fill:#F7AC52;" d="M136.044,184.071c0-10.63,8.616-19.246,19.246-19.246c-31.405,0-33.27-0.612-38.283,1.385
	c-7.568,3.053-12.1,10.268-12.1,17.86v14.752l31.137,20.23V184.071z"/>
<path style="fill:#7C5437;" d="M454.189,368.964v-45.451c0-13.943-11.301-25.244-25.243-25.244H83.067
	c-13.942,0-25.241,11.301-25.241,25.244v116.204h396.363v-44.065"/>
<path style="fill:#8E5E3D;" d="M428.945,298.269H290.912c32.834,64.99,91.893,114.466,163.277,134.511c0-4.696,0-105.372,0-109.266
	C454.189,309.57,442.887,298.269,428.945,298.269z"/>
<path style="fill:#BAD8E8;" d="M495.094,439.717H16.919c-9.213,0-16.68,7.468-16.68,16.681c0,9.212,7.467,16.681,16.68,16.681
	c20.866,0,461.231,0,478.176,0c9.213,0,16.682-7.468,16.682-16.681C511.776,447.186,504.307,439.717,495.094,439.717z"/>
<path style="fill:#91C5DB;" d="M495.094,456.398c-9.432,0-465.347,0-478.176,0c-6.169,0-11.546-3.359-14.429-8.34
	c-6.438,11.109,1.613,25.02,14.429,25.02c20.866,0,461.231,0,478.176,0c9.213,0,16.682-7.468,16.682-16.681
	c0-3.042-0.828-5.885-2.251-8.34C506.64,453.039,501.266,456.398,495.094,456.398z"/>
<path style="fill:#603D26;" d="M114.205,298.269H83.067c-13.942,0-25.241,11.301-25.241,25.244v116.204h31.137V323.513
	C88.963,309.57,100.263,298.269,114.205,298.269z"/>
<path style="fill:#FFC373;" d="M57.826,323.513v15.431l32.378,21.038c12.638,8.212,23.703,3.27,27.608,0.978l24.499-15.919
	c0.002,0,0.002,0,0.002-0.001c11.198-7.276,21.082-2.754,24.421-0.782c42.85,27.837,34.94,27.855,76.605,0.783
	c0,0,5.453-3.988,12.726-3.988c3.756,0.031,8.072,1.042,12.607,3.987c0,0.001,0.002,0.001,0.002,0.001
	c24.427,15.872,28.496,19.672,36.866,19.935c4.595,0.217,9.175-1.089,12.791-3.208c15.116-9.823,8.513-5.532,26.947-17.509
	c3.339-1.972,13.223-6.494,24.421,0.782c0,0.001,0,0.001,0.002,0.001l24.499,15.919c3.904,2.292,14.969,7.234,27.61-0.978
	l32.378-21.038v-15.431c0-13.943-11.301-25.244-25.243-25.244c-11.301,0-342.062,0-345.878,0
	C69.125,298.269,57.826,309.57,57.826,323.513z"/>
<path style="fill:#FCCA8D;" d="M428.945,298.269c-1.159,0-135.289,0-138.033,0c10.342,20.474,23.29,39.4,38.406,56.359
	c1.733-1.127-0.833,0.54,15.96-10.371c3.339-1.972,13.223-6.494,24.421,0.782c0,0.001,0,0.001,0.002,0.001l24.499,15.919
	c3.904,2.292,14.969,7.234,27.61-0.978l32.378-21.038v-15.431C454.189,309.57,442.887,298.269,428.945,298.269z"/>
<path style="fill:#F7AC52;" d="M88.963,323.513c0-13.943,11.299-25.244,25.242-25.244H83.067c-13.942,0-25.241,11.301-25.241,25.244
	v15.431l31.137,20.231C88.963,359.175,88.963,323.513,88.963,323.513z"/>
<circle style="fill:#00CDB3;" cx="173.981" cy="266.139" r="10.83"/>
<circle style="fill:#57BAE5;" cx="282.964" cy="248.351" r="10.83"/>
<circle style="fill:#00CDB3;" cx="356.281" cy="259.414" r="10.83"/>
<path style="fill:#FF4B4E;" d="M298.551,280.713c-1.959-4.17-0.164-9.138,4.005-11.095l15.046-7.066
	c4.171-1.957,9.139-0.166,11.096,4.006c1.957,4.168,0.162,9.135-4.005,11.094l-15.048,7.066
	C305.455,286.68,300.502,284.869,298.551,280.713z"/>
<path style="fill:#FFCA54;" d="M220.584,269.982l-14.184-8.665c-3.93-2.4-5.171-7.533-2.77-11.465
	c2.401-3.93,7.534-5.172,11.464-2.77l14.186,8.665c3.932,2.4,5.171,7.534,2.77,11.464
	C229.651,271.139,224.524,272.384,220.584,269.982z"/>
<circle style="fill:#57BAE5;" cx="322.138" cy="407.26" r="10.83"/>
<circle style="fill:#00CDB3;" cx="213.155" cy="389.472" r="10.83"/>
<circle style="fill:#FF4B4E;" cx="139.838" cy="400.526" r="10.83"/>
<path style="fill:#FFCA54;" d="M186.474,425.837l-15.046-7.065c-4.169-1.958-5.962-6.925-4.005-11.095
	c1.957-4.169,6.925-5.96,11.094-4.005l15.048,7.066c4.169,1.957,5.962,6.924,4.005,11.094
	C195.61,426.002,190.646,427.794,186.474,425.837z"/>
<path style="fill:#57BAE5;" d="M379.053,418.772l-15.048-7.064c-4.169-1.959-5.962-6.925-4.005-11.095
	c1.957-4.169,6.925-5.96,11.094-4.006l15.048,7.065c4.167,1.958,5.962,6.924,4.005,11.095
	C388.198,418.919,383.246,420.736,379.053,418.772z"/>
<path style="fill:#FFCA54;" d="M264.07,408.33c-2.4-3.93-1.16-9.063,2.77-11.464l14.186-8.666c3.93-2.4,9.064-1.16,11.466,2.77
	c2.4,3.93,1.158,9.063-2.772,11.466l-14.186,8.665C271.603,413.503,266.47,412.262,264.07,408.33z"/>
<g>
</g>
<g>
</g>
<g>
</g>
<g>
</g>
<g>
</g>
<g>
</g>
<g>
</g>
<g>
</g>
<g>
</g>
<g>
</g>
<g>
</g>
<g>
</g>
<g>
</g>
<g>
</g>
<g>
</g>
</svg>
