<?xml version="1.0" standalone="no"?>
<!DOCTYPE svg PUBLIC "-//W3C//DTD SVG 20010904//EN"
 "http://www.w3.org/TR/2001/REC-SVG-20010904/DTD/svg10.dtd">
<svg version="1.0" xmlns="http://www.w3.org/2000/svg"
 width="70.000000pt" height="70.000000pt" viewBox="0 0 70.000000 70.000000"
 preserveAspectRatio="xMidYMid meet">
<metadata>
Created by potrace 1.11, written by Peter Selinger 2001-2013
</metadata>
<g transform="translate(0.000000,70.000000) scale(0.100000,-0.100000)"
fill="#000000" stroke="none">
<path d="M217 666 c-88 -37 -140 -83 -184 -167 -25 -48 -28 -64 -28 -149 0
-84 3 -101 27 -147 37 -69 100 -130 168 -162 46 -22 69 -26 145 -26 76 0 99 4
146 26 118 55 189 161 197 290 5 89 -12 146 -64 220 -88 122 -268 173 -407
115z m258 -53 c63 -33 105 -75 136 -138 29 -59 31 -71 27 -138 -19 -297 -409
-386 -554 -125 -26 47 -29 62 -29 138 0 70 4 93 24 130 76 143 257 204 396
133z"/>
<path d="M322 434 c0 -110 3 -129 19 -145 11 -11 28 -19 39 -19 18 0 20 -7 20
-65 0 -58 2 -65 20 -65 22 0 23 4 22 95 0 33 2 54 5 48 7 -20 118 -17 137 3 9
8 16 21 17 27 1 7 2 25 4 41 1 20 -5 37 -19 51 -18 18 -32 21 -90 20 -80 -2
-96 -15 -96 -78 0 -31 -3 -38 -17 -35 -16 3 -18 17 -18 126 0 119 0 122 -22
122 -21 0 -22 -3 -21 -126z m231 -53 c4 -1 7 -16 7 -34 0 -33 0 -33 -52 -36
-28 -1 -55 -4 -59 -7 -10 -6 -8 58 2 72 7 8 54 11 102 5z"/>
<path d="M129 452 c-23 -16 -26 -74 -4 -92 8 -7 43 -13 78 -14 47 -1 62 -5 62
-16 0 -15 -16 -17 -137 -19 -40 -1 -47 -4 -45 -21 1 -19 8 -20 99 -20 89 0 98
2 112 22 40 56 3 98 -84 98 -47 0 -60 3 -60 15 0 12 15 15 75 15 71 0 75 1 75
23 0 21 -4 22 -76 22 -47 0 -83 -5 -95 -13z"/>
</g>
</svg>
