<svg id="Layer_2" xmlns="http://www.w3.org/2000/svg" viewBox="0 0 499.8 84.6"><style>.st0{fill:#2c7}.st1{fill:#555}</style><circle class="st0" cx="41.4" cy="43.4" r="36.1"/><path class="st1" d="M111.8 30.3c2.6 0 4.9.5 6.8 1.4 1.9.9 3.5 2.2 4.8 3.8 1.3 1.6 2.2 3.5 2.8 5.6.6 2.1.9 4.5.9 6.9 0 3.8-.7 7.4-2.1 10.8-1.4 3.4-3.3 6.3-5.7 8.8-2.4 2.5-5.3 4.5-8.6 5.9-3.3 1.5-6.9 2.2-10.7 2.2h-2.6c-1.2 0-2.7-.2-4.3-.4-1.6-.2-3.3-.5-5.1-1-1.8-.4-3.5-1-5.1-1.8l14.3-60 12.8-2-5 21.3c1.1-.5 2.2-.9 3.3-1.2 1.1-.2 2.2-.3 3.5-.3zm-10.7 35.3c1.9 0 3.7-.5 5.4-1.4 1.7-.9 3.2-2.2 4.4-3.8 1.2-1.6 2.2-3.3 2.9-5.3.7-2 1.1-4 1.1-6.2 0-2.6-.4-4.7-1.3-6.2s-2.5-2.2-4.9-2.2c-.8 0-1.8.1-3 .4-1.2.3-2.4.9-3.3 1.7L97 65.2c.3.1.6.1.9.2.2.1.5.1.8.1h1c.3.1.8.1 1.4.1zM140.6 74.6h-12.2l10.3-43.4H151l-10.4 43.4zm5.9-48.7c-1.7 0-3.2-.5-4.6-1.5-1.4-1-2.1-2.6-2.1-4.7 0-1.2.2-2.2.7-3.3.5-1 1.1-1.9 1.9-2.6.8-.7 1.7-1.3 2.7-1.8 1-.4 2.1-.7 3.3-.7 1.7 0 3.2.5 4.6 1.5 1.4 1 2.1 2.6 2.1 4.7 0 1.2-.2 2.2-.7 3.3-.5 1-1.1 1.9-1.9 2.6-.8.7-1.7 1.3-2.7 1.8-1 .5-2.1.7-3.3.7zM161.5 20.4l12.8-2-3.1 12.8h13.7l-2.5 10.1h-13.6l-3.6 15.2c-.3 1.3-.5 2.4-.6 3.5-.1 1.1.1 2.1.4 2.8.4.8 1 1.4 1.9 1.9.9.4 2.1.7 3.6.7 1.3 0 2.6-.1 3.8-.4s2.5-.6 3.8-1l.9 9.4c-1.6.6-3.4 1.1-5.4 1.6-1.9.4-4.2.7-6.8.7-3.8 0-6.7-.6-8.8-1.7-2.1-1.1-3.6-2.7-4.5-4.6-.9-2-1.3-4.2-1.2-6.7.1-2.5.5-5.2 1.2-8l8-34.3zM183.1 57.2c0-3.7.6-7.3 1.8-10.6 1.2-3.3 2.9-6.2 5.2-8.7 2.3-2.5 5-4.4 8.2-5.9 3.2-1.4 6.8-2.1 10.8-2.1 2.5 0 4.7.2 6.6.7 2 .5 3.7 1.1 5.3 1.9l-4.2 9.6c-1.1-.4-2.2-.8-3.4-1.2-1.2-.4-2.6-.5-4.3-.5-4.1 0-7.4 1.4-9.7 4.2-2.4 2.8-3.5 6.6-3.5 11.3 0 2.8.6 5.1 1.8 6.8 1.2 1.7 3.4 2.6 6.7 2.6 1.6 0 3.1-.2 4.6-.5 1.5-.3 2.8-.7 4-1.2l.9 9.8c-1.5.6-3.2 1.1-5.1 1.6-1.8.5-4.1.7-6.7.7-3.4 0-6.3-.5-8.7-1.5-2.4-1-4.3-2.3-5.9-4-1.5-1.7-2.7-3.6-3.3-5.9-.7-2.2-1.1-4.6-1.1-7.1zM235.8 75.7c-2.9 0-5.4-.4-7.6-1.3s-3.9-2.1-5.3-3.7-2.5-3.5-3.2-5.6c-.7-2.2-1.1-4.6-1.1-7.2 0-3.3.5-6.6 1.6-9.9 1.1-3.3 2.7-6.3 4.7-8.9s4.6-4.8 7.7-6.5c3-1.7 6.5-2.5 10.4-2.5 2.9 0 5.4.4 7.5 1.3 2.2.9 4 2.1 5.4 3.7 1.4 1.6 2.5 3.5 3.2 5.6.7 2.2 1.1 4.6 1.1 7.2 0 3.3-.5 6.6-1.6 9.9-1 3.3-2.6 6.3-4.6 8.9-2 2.6-4.6 4.8-7.6 6.5-3.1 1.7-6.6 2.5-10.6 2.5zm6.1-35.3c-1.8 0-3.4.5-4.8 1.6-1.4 1-2.5 2.4-3.5 4-.9 1.6-1.6 3.3-2.1 5.2-.5 1.9-.7 3.7-.7 5.4 0 2.8.4 5 1.3 6.5s2.5 2.3 4.8 2.3c1.8 0 3.4-.5 4.8-1.6 1.4-1 2.5-2.4 3.5-4 .9-1.6 1.6-3.3 2.1-5.2.5-1.9.7-3.7.7-5.4 0-2.8-.4-5-1.3-6.5s-2.5-2.3-4.8-2.3zM273.6 74.6h-12.2l10.3-43.4H284l-10.4 43.4zm6-48.7c-1.7 0-3.2-.5-4.6-1.5-1.4-1-2.1-2.6-2.1-4.7 0-1.2.2-2.2.7-3.3.5-1 1.1-1.9 1.9-2.6.8-.7 1.7-1.3 2.7-1.8 1-.4 2.1-.7 3.3-.7 1.7 0 3.2.5 4.6 1.5 1.4 1 2.1 2.6 2.1 4.7 0 1.2-.2 2.2-.7 3.3-.5 1-1.1 1.9-1.9 2.6-.8.7-1.7 1.3-2.7 1.8-1.1.5-2.2.7-3.3.7zM292.7 33.2c.9-.3 2-.6 3.1-.9 1.1-.4 2.4-.7 3.8-1 1.4-.3 3-.5 4.7-.7 1.7-.2 3.7-.3 5.9-.3 6.5 0 10.9 1.9 13.4 5.6 2.4 3.7 2.8 8.9 1.2 15.3l-5.6 23.4h-12.3l5.4-22.9c.3-1.4.6-2.8.8-4.2.2-1.3.2-2.5 0-3.5s-.7-1.8-1.5-2.5c-.8-.6-2-.9-3.7-.9-1.6 0-3.2.2-4.9.5l-8 33.6h-12.3l10-41.5z"/><g><path class="st0" d="M331.3 57.2c0-3.7.6-7.3 1.8-10.6 1.2-3.3 2.9-6.2 5.2-8.7 2.2-2.5 5-4.4 8.2-5.9 3.2-1.4 6.8-2.1 10.8-2.1 2.5 0 4.7.2 6.6.7 1.9.5 3.7 1.1 5.3 1.9l-4.2 9.6c-1.1-.4-2.2-.8-3.4-1.2-1.2-.4-2.6-.5-4.3-.5-4.1 0-7.4 1.4-9.7 4.2-2.4 2.8-3.5 6.6-3.5 11.3 0 2.8.6 5.1 1.8 6.8 1.2 1.7 3.4 2.6 6.7 2.6 1.6 0 3.1-.2 4.6-.5 1.5-.3 2.8-.7 4-1.2l.9 9.8c-1.5.6-3.2 1.1-5.1 1.6-1.8.5-4.1.7-6.7.7-3.4 0-6.3-.5-8.7-1.5-2.4-1-4.3-2.3-5.9-4-1.5-1.7-2.7-3.6-3.3-5.9-.7-2.2-1.1-4.6-1.1-7.1zM405.4 55.8c-.8 3.1-1 6.3-.7 9.4s1 6 1.9 8.5l-11 1.6c-.3-.7-.6-1.3-.9-1.9-.3-.6-.5-1.3-.8-2.1-1.5 1.3-3.2 2.3-5.1 3.1-1.9.8-4 1.2-6.3 1.2-2.8 0-5.1-.5-7.1-1.4-2-1-3.5-2.3-4.8-3.9-1.2-1.6-2.1-3.5-2.7-5.7-.5-2.2-.8-4.5-.8-7 0-3.8.7-7.4 2-10.7s3.2-6.3 5.6-8.8c2.4-2.5 5.2-4.5 8.5-5.9 3.2-1.4 6.8-2.1 10.6-2.1.5 0 1.4 0 2.6.1 1.2.1 2.7.2 4.2.4 1.6.2 3.3.5 5 .9 1.8.4 3.4 1 5 1.8l-5.2 22.5zm-8.6-15.1c-.7-.1-1.4-.2-1.9-.2-.6-.1-1.3-.1-2.1-.1-1.9 0-3.6.5-5.2 1.4-1.6.9-3 2.2-4.3 3.7-1.2 1.5-2.2 3.3-2.8 5.2-.7 2-1 4-1 6.2 0 2.6.4 4.7 1.3 6.3.9 1.5 2.5 2.3 4.9 2.3 1.3 0 2.4-.2 3.4-.7 1-.5 2.1-1.3 3.3-2.5.1-1.4.3-2.8.5-4.3s.5-2.9.8-4.2l3.1-13.1zM425.3 65.8c2.8 0 4.7-.4 5.8-1.2 1-.8 1.6-1.7 1.6-2.6 0-.6-.1-1.1-.3-1.6-.2-.4-.5-.9-.9-1.2-.4-.4-1-.8-1.8-1.2-.8-.4-1.8-.9-3-1.4-1.4-.6-2.7-1.3-3.9-1.9-1.2-.7-2.3-1.5-3.2-2.5-.9-1-1.6-2.1-2.1-3.3-.5-1.2-.8-2.7-.8-4.4 0-4.5 1.6-8 4.9-10.6 3.3-2.6 8-3.9 14.3-3.9 3 0 5.6.3 7.9 1 2.3.7 4.2 1.4 5.6 2.1l-4.2 9.2c-1.2-.6-2.6-1.2-4.5-1.7-1.8-.5-3.6-.8-5.4-.8-.8 0-1.5 0-2.3.1-.7.1-1.4.3-2.1.5-.6.3-1.1.7-1.5 1.2-.4.5-.6 1.2-.6 2 0 1.1.4 1.9 1.3 2.5.9.6 2 1.2 3.6 2 2.1 1 3.9 2 5.4 2.9 1.4.9 2.6 1.8 3.4 2.8.9 1 1.5 2.1 1.9 3.4.4 1.3.6 2.8.6 4.5 0 1.8-.4 3.5-1.1 5.2-.7 1.7-1.9 3.2-3.5 4.5-1.6 1.3-3.6 2.4-6.1 3.2-2.5.8-5.4 1.2-8.9 1.2-2.1 0-4.1-.1-5.8-.4-1.7-.3-3.3-.6-4.6-1-1.3-.4-2.4-.8-3.3-1.3-.9-.4-1.6-.8-2.1-1.1l4.2-9.4c.9.5 2.4 1.2 4.4 2.1 1.9.7 4.2 1.1 7.1 1.1zM478.2 30.4c2.4 0 4.4.3 6.1 1 1.7.7 3.1 1.6 4.2 2.9 1.1 1.2 1.9 2.7 2.5 4.4.5 1.7.8 3.5.8 5.5 0 2.3-.3 4.6-.8 6.8l-5.6 23.4h-12.3l5.4-22.9c.2-.9.4-1.9.6-3 .2-1 .3-2 .3-3 0-1.4-.4-2.7-1.1-3.7-.7-1-2.2-1.5-4.3-1.5-.9 0-1.7.1-2.5.2s-1.6.2-2.3.4l-8 33.5h-12.3l14.8-62 12.8-2-5 20.7 3.3-.6c1.2 0 2.3-.1 3.4-.1z"/></g><g><path d="M58.2 48.2c-.8-1.6-2.2-2.9-4.2-3.9 3-.8 4.8-2.9 5.1-6.3.1-1.2 0-2.4-.3-3.4-.4-1-1-1.9-1.8-2.6-.8-.7-1.8-1.4-2.8-1.9-1.1-.5-2.3-1-3.7-1.4l1.5-7-4.2-.9-1.4 6.8c-.7-.2-1.9-.4-3.4-.7l1.5-6.8-4.5-.9-1.5 7c-.6-.1-1.5-.3-2.7-.5L30 24.3l-1 4.5 3.1.7c1.4.3 2.1 1.1 2.1 2.4l-1.7 7.9c.2 0 .3.1.4.1l-.4-.1-2.4 11.1c-.3.9-1 1.3-1.9 1.1l-3.1-.7-1.9 4.9 5.5 1.2c.4.1.9.2 1.5.3.7.2 1.2.3 1.5.3l-1.5 7 4.2.9 1.5-7c.8.2 1.9.4 3.4.7l-1.5 6.9 4.2.9 1.5-7c1.5.2 2.9.4 4.1.4 1.2 0 2.4 0 3.6-.2 1.2-.2 2.2-.6 3-1 .9-.5 1.6-1.2 2.3-2.1.7-.9 1.2-2 1.6-3.3.8-2.3.9-4.3.1-6zM41.8 31.9c.1 0 .5.1 1.1.2.6.1 1.1.2 1.5.3.4.1.9.2 1.6.4.7.2 1.2.4 1.7.6.4.2.9.5 1.4.8.5.3.9.7 1.2 1.1.3.4.5.8.6 1.3.1.5.1 1.1 0 1.7-.1.5-.3 1-.5 1.4-.3.4-.6.7-1 .9-.4.2-.8.4-1.2.5-.4.1-.9.2-1.4.2h-1.5c-.4 0-.9-.1-1.5-.2s-1.1-.2-1.4-.2c-.3-.1-.7-.1-1.3-.3-.5-.1-.9-.2-.9-.2l1.6-8.5zm7.6 21.2c-.3.4-.6.7-.9 1-.3.3-.8.5-1.3.6-.5.1-1 .2-1.4.3-.5.1-1 .1-1.6.1-.6 0-1.2-.1-1.6-.1-.5-.1-1-.1-1.6-.2-.6-.1-1.1-.2-1.5-.3-.4-.1-.8-.2-1.3-.3-.5-.1-.9-.2-1-.2l2-9.3c.1 0 .6.1 1.3.3.7.1 1.3.3 1.8.4.5.1 1.1.3 1.9.5.8.2 1.5.5 2 .7.5.2 1.1.5 1.7.9.6.4 1.1.8 1.4 1.2.3.4.6.9.7 1.5.2.6.2 1.2 0 1.9-.2.2-.3.7-.6 1zm0 0" fill="#fff"/></g></svg>