<?xml version="1.0" encoding="utf-8"?>
<!-- Generator: Adobe Illustrator 15.1.0, SVG Export Plug-In . SVG Version: 6.00 Build 0)  -->
<!DOCTYPE svg PUBLIC "-//W3C//DTD SVG 1.1//EN" "http://www.w3.org/Graphics/SVG/1.1/DTD/svg11.dtd">
<svg version="1.1" id="Layer_1" xmlns="http://www.w3.org/2000/svg" xmlns:xlink="http://www.w3.org/1999/xlink" x="0px" y="0px"
	 width="50px" height="50px" viewBox="7.217 8.998 50 50" enable-background="new 7.217 8.998 50 50" xml:space="preserve">
<g>
	<path fill="#FFFFFF" d="M32.217,58.998c-13.785,0-25-11.215-25-25c0-13.786,11.214-25,25-25c13.786,0,25,11.215,25,25
		S46.002,58.998,32.217,58.998z M32.217,12.28c-11.975,0-21.717,9.742-21.717,21.718c0,11.976,9.742,21.718,21.717,21.718
		c11.976,0,21.719-9.743,21.719-21.718C53.936,22.022,44.192,12.28,32.217,12.28z"/>
</g>
<g>
	<path fill="#FFFFFF" d="M27.061,39.428c0.717-0.306,1.33-0.81,1.77-1.458c0.453-0.667,0.691-1.445,0.691-2.252v-0.435
		c0-0.534-0.11-1.076-0.319-1.567c-0.305-0.718-0.81-1.33-1.457-1.769c-0.667-0.452-1.444-0.691-2.248-0.691H19.06
		c-0.158,0-0.305-0.03-0.45-0.09c-0.207-0.088-0.393-0.241-0.521-0.431c-0.131-0.197-0.198-0.414-0.2-0.646v-0.436
		c0.001-0.16,0.032-0.307,0.092-0.449c0.088-0.208,0.24-0.394,0.43-0.521c0.197-0.131,0.415-0.198,0.647-0.199h9.756v-2.858H19.06
		c-0.537,0-1.077,0.11-1.568,0.318c-0.718,0.306-1.33,0.81-1.769,1.458c-0.454,0.667-0.692,1.446-0.69,2.252v0.434
		c0,0.535,0.109,1.077,0.318,1.566c0.305,0.72,0.81,1.332,1.458,1.771c0.666,0.452,1.443,0.691,2.247,0.691h6.438
		c0.158,0,0.306,0.029,0.45,0.09c0.208,0.087,0.394,0.24,0.521,0.43c0.134,0.198,0.2,0.415,0.2,0.648v0.435
		c0,0.159-0.029,0.305-0.091,0.449c-0.087,0.208-0.24,0.393-0.43,0.521c-0.198,0.131-0.414,0.198-0.647,0.2H13.517v2.857h11.977
		C26.037,39.746,26.563,39.639,27.061,39.428z"/>
	<path fill="#FFFFFF" d="M39.22,49.3h-2.859v-9.554h-1.696c-0.805,0-1.583-0.238-2.249-0.69c-0.648-0.438-1.153-1.05-1.457-1.769
		c-0.21-0.49-0.319-1.033-0.319-1.568V18.696h2.858v17.023c0,0.233,0.067,0.45,0.2,0.647c0.128,0.19,0.312,0.343,0.52,0.43
		c0.144,0.062,0.292,0.091,0.45,0.093h1.693v-4.317c0-0.807,0.238-1.585,0.692-2.251c0.438-0.648,1.051-1.152,1.768-1.458
		c0.498-0.212,1.024-0.319,1.569-0.319h6.504c0.804,0,1.582,0.239,2.247,0.691c0.649,0.439,1.154,1.051,1.458,1.769
		c0.208,0.491,0.318,1.033,0.318,1.568v3.147c0.001,0.807-0.236,1.585-0.691,2.252c-0.439,0.647-1.051,1.152-1.768,1.458
		c-0.499,0.211-1.024,0.318-1.568,0.318h-6.896v-2.857h6.896c0.233-0.001,0.451-0.068,0.648-0.2c0.189-0.128,0.341-0.313,0.43-0.521
		c0.062-0.146,0.089-0.292,0.091-0.45V32.57c-0.002-0.232-0.068-0.449-0.2-0.647c-0.128-0.189-0.313-0.342-0.521-0.43
		c-0.144-0.061-0.291-0.09-0.449-0.09h-6.504c-0.231,0-0.449,0.067-0.646,0.199c-0.189,0.127-0.343,0.312-0.432,0.521
		c-0.06,0.144-0.089,0.291-0.089,0.449L39.22,49.3L39.22,49.3z"/>
</g>
</svg>
