<?xml version="1.0" encoding="utf-8"?>
<!-- Generator: Adobe Illustrator 15.1.0, SVG Export Plug-In . SVG Version: 6.00 Build 0)  -->
<!DOCTYPE svg PUBLIC "-//W3C//DTD SVG 1.1//EN" "http://www.w3.org/Graphics/SVG/1.1/DTD/svg11.dtd">
<svg version="1.1" id="Layer_1" xmlns="http://www.w3.org/2000/svg" xmlns:xlink="http://www.w3.org/1999/xlink" x="0px" y="0px"
	 width="396px" height="146px" viewBox="0 0 396 146" enable-background="new 0 0 396 146" xml:space="preserve">
<title>Group 5</title>
<desc>Created with Sketch.</desc>
<g id="Page-1">
	<g id="Desktop-HD" transform="translate(-614.000000, -263.000000)">
		<g id="Group-5" transform="translate(590.000000, 250.000000)">
			<g id="Group">
				
					<linearGradient id="Oval_2_" gradientUnits="userSpaceOnUse" x1="-235.1724" y1="389.4863" x2="-235.1724" y2="388.4863" gradientTransform="matrix(85.4995 -76.9841 -76.9851 -85.5006 50213.8789 15235.4473)">
					<stop  offset="0" style="stop-color:#96DFA6;stop-opacity:0"/>
					<stop  offset="1" style="stop-color:#5DBC6D"/>
				</linearGradient>
				<ellipse id="Oval" fill="url(#Oval_2_)" cx="160.583" cy="81.5" rx="57.526" ry="57.526"/>
				
					<linearGradient id="Oval-Copy_1_" gradientUnits="userSpaceOnUse" x1="-235.0605" y1="388.46" x2="-235.3489" y2="389.8038" gradientTransform="matrix(85.4995 -76.9841 -76.9851 -85.5006 50173.1328 15235.4473)">
					<stop  offset="0" style="stop-color:#96DFA6;stop-opacity:0"/>
					<stop  offset="1" style="stop-color:#5DBC6D"/>
				</linearGradient>
				
					<ellipse id="Oval-Copy" opacity="0.5" fill="url(#Oval-Copy_1_)" enable-background="new    " cx="119.838" cy="81.5" rx="57.526" ry="57.526"/>
				
					<linearGradient id="Oval-Copy-2_1_" gradientUnits="userSpaceOnUse" x1="-235.5635" y1="389.3789" x2="-234.9272" y2="388.7376" gradientTransform="matrix(85.4995 -76.9841 -76.9851 -85.5006 50134.7852 15235.4473)">
					<stop  offset="0" style="stop-color:#96DFA6;stop-opacity:0"/>
					<stop  offset="1" style="stop-color:#5DBC6D"/>
				</linearGradient>
				
					<ellipse id="Oval-Copy-2" opacity="0.25" fill="url(#Oval-Copy-2_1_)" enable-background="new    " cx="81.49" cy="81.5" rx="57.526" ry="57.526"/>
				<g id="Group-8" transform="translate(149.797571, 13.183824)">
					<g id="Group-3">
						<g id="Clip-2">
						</g>
						<defs>
							<filter id="Adobe_OpacityMaskFilter" filterUnits="userSpaceOnUse" x="0" y="0.195" width="144.806" height="144.827">
								<feColorMatrix  type="matrix" values="1 0 0 0 0  0 1 0 0 0  0 0 1 0 0  0 0 0 1 0"/>
							</filter>
						</defs>
						<mask maskUnits="userSpaceOnUse" x="0" y="0.195" width="144.806" height="144.827" id="mask-5">
							<g filter="url(#Adobe_OpacityMaskFilter)">
								<polygon id="path-4" fill="#FFFFFF" points="0,0.195 144.806,0.195 144.806,145.022 0,145.022 								"/>
							</g>
						</mask>
						<path id="Fill-1" mask="url(#mask-5)" fill="#5DBC6D" d="M72.402,9.701c-34.682,0-62.897,28.221-62.897,62.908
							c0,34.688,28.215,62.907,62.897,62.907c34.684,0,62.9-28.219,62.9-62.907C135.302,37.922,107.085,9.701,72.402,9.701
							 M72.402,145.022C32.479,145.022,0,112.538,0,72.609S32.479,0.195,72.402,0.195c39.925,0,72.404,32.484,72.404,72.414
							S112.326,145.022,72.402,145.022"/>
					</g>
					
						<linearGradient id="Oval_3_" gradientUnits="userSpaceOnUse" x1="-382.7946" y1="377.7029" x2="-383.478" y2="376.6307" gradientTransform="matrix(127.0283 0 0 -127.0441 48755.6445 47967.0156)">
						<stop  offset="0" style="stop-color:#FFFFFF"/>
						<stop  offset="1" style="stop-color:#FFFFFF"/>
					</linearGradient>
					<ellipse id="Oval_1_" fill="url(#Oval_3_)" cx="71.903" cy="73.11" rx="63.515" ry="63.522"/>
					<path id="Fill-4" fill="#5DBC6D" d="M57.527,87.775c2.095-0.885,3.886-2.34,5.166-4.208c1.323-1.927,2.02-4.171,2.02-6.499
						v-1.252c0-1.543-0.322-3.108-0.934-4.523c-0.89-2.073-2.364-3.838-4.252-5.105c-1.949-1.305-4.219-1.995-6.566-1.995h-18.8
						c-0.462,0-0.89-0.086-1.312-0.261c-0.605-0.253-1.148-0.694-1.521-1.243c-0.385-0.569-0.578-1.195-0.584-1.866v-1.256
						c0.004-0.461,0.092-0.882,0.269-1.295c0.256-0.6,0.7-1.135,1.254-1.505c0.576-0.378,1.21-0.572,1.891-0.574h28.487v-8.25H34.16
						c-1.567,0-3.145,0.319-4.579,0.92c-2.097,0.883-3.883,2.337-5.164,4.207c-1.325,1.925-2.021,4.173-2.018,6.498v1.251
						c0,1.545,0.32,3.11,0.928,4.523c0.892,2.075,2.366,3.841,4.259,5.108c1.944,1.306,4.214,1.995,6.562,1.995h18.8
						c0.462,0,0.89,0.086,1.313,0.261c0.604,0.252,1.147,0.694,1.521,1.241c0.389,0.57,0.582,1.197,0.582,1.871v1.252
						c0,0.458-0.086,0.881-0.266,1.297c-0.254,0.6-0.701,1.134-1.255,1.504c-0.578,0.379-1.208,0.571-1.891,0.576H17.976v8.246
						h34.976C54.536,88.691,56.074,88.383,57.527,87.775"/>
					<path id="Fill-6" fill="#5DBC6D" d="M93.156,117.456h-8.279V89.769h-4.912c-2.33,0-4.583-0.689-6.512-2
						c-1.877-1.273-3.34-3.045-4.221-5.13c-0.608-1.42-0.924-2.993-0.924-4.542V28.765h8.277v49.333
						c0,0.675,0.194,1.306,0.578,1.876c0.371,0.552,0.902,0.996,1.505,1.248c0.417,0.177,0.847,0.264,1.304,0.266h4.904V68.977
						c0-2.336,0.689-4.593,2-6.525c1.271-1.876,3.045-3.338,5.124-4.224c1.439-0.614,2.966-0.925,4.541-0.925h18.835
						c2.33,0,4.582,0.694,6.508,2.004c1.877,1.272,3.342,3.045,4.225,5.127c0.602,1.423,0.92,2.994,0.92,4.543v9.121
						c0.004,2.338-0.686,4.594-2.001,6.525c-1.271,1.877-3.044,3.338-5.118,4.226c-1.444,0.61-2.967,0.921-4.543,0.921H95.4v-8.281
						h19.967c0.678-0.004,1.309-0.198,1.877-0.578c0.549-0.371,0.99-0.908,1.246-1.511c0.178-0.421,0.26-0.845,0.264-1.302v-9.126
						c-0.004-0.67-0.197-1.299-0.576-1.875c-0.372-0.549-0.908-0.993-1.51-1.247c-0.417-0.175-0.842-0.261-1.301-0.262H96.533
						c-0.668,0.002-1.299,0.196-1.867,0.577c-0.549,0.369-0.994,0.906-1.25,1.512c-0.174,0.418-0.26,0.843-0.26,1.3V117.456z"/>
				</g>
			</g>
		</g>
	</g>
</g>
</svg>
